<svg xmlns="http://www.w3.org/2000/svg" viewBox="0 0 542.95 369.22"><defs><style>.cls-1{fill:#da1c5c;}.cls-2{fill:#414042;}.cls-3{fill:#f1f2f2;}.cls-4{fill:#39b54a;}.cls-5{fill:#fcbb76;}.cls-6{fill:#fbb040;}</style></defs><title>Asset 10</title><g id="Layer_2" data-name="Layer 2"><g id="Layer_1-2" data-name="Layer 1"><path class="cls-1" d="M109.6,221.46c-23.66-12.76-42.89-34.94-48.68-61.19s3.47-56.12,25.24-71.9c13.5-9.79,30.47-13.7,47.11-14.73,10.19-.63,20.95-.13,29.72,5.09,6.34,3.77,11.1,9.71,15,16,16.15,26.12,17.63,62.3-1.24,86.53-6.5,8.35-15,15-23.9,20.66a176.32,176.32,0,0,1-38.37,18.45c-5.72,1.94-12.27,4.24-14.44,9.87a145.13,145.13,0,0,0,23.31.17,22.8,22.8,0,0,1-12.69-11.22"/><path class="cls-2" d="M108.39,232.42a26.11,26.11,0,0,1,.49,19.28c-2.56,7-7.75,10.09-12.79,15-6.23,6-7.11,14.9,0,20.59,4.3,3.47,9.42,6.09,14.11,9,2.9,1.79,5.89,3.49,8.72,5.39,5.06,3.4,4.89,7.78,3.61,13.09q-5,20.82-10.12,41.61a.64.64,0,0,0,.6.79c3.76.24,5.45-.2,3,4.18a27.22,27.22,0,0,1-5,6.24c-.58.56.3,1.44.88.88a28.29,28.29,0,0,0,7.3-11.4.64.64,0,0,0-.61-.79c-1.83-.12-3.66.4-4.55-1.46-.45-.94,1.08-4.45,1.38-5.68l2.76-11.34c1.84-7.57,3.71-15.13,5.52-22.7,1-4,2.27-8.24-.68-11.7-4-4.63-11.15-7.53-16.27-10.68-6.41-4-16.58-8.37-14.26-17.69,1.88-7.57,9.72-10.47,14.06-16.3a27.32,27.32,0,0,0,2.94-26.88c-.32-.74-1.39-.1-1.08.63Z"/><path class="cls-3" d="M84.93,108.37a34,34,0,0,0-1.66,14.47,1.88,1.88,0,0,0,3.75,0,15.83,15.83,0,0,1,4.44-10,1.91,1.91,0,0,0-1.33-3.21l-2.72-.23,1.33,3.2a18.25,18.25,0,0,1,6.58-4.67l-1.45-3.43A23.71,23.71,0,0,1,87,108.13l1.83,3.13a8.33,8.33,0,0,1,6.08-1.84l-.94-3.5a16.47,16.47,0,0,0-7.58,6.71h3.23c-.95-1.93.87-4.7,3.11-4.33l-.82-3.14-3.09,3.23c-1.67,1.74,1,4.39,2.65,2.65l3.09-3.23c.89-.92.63-2.89-.83-3.13a6.89,6.89,0,0,0-7.34,9.84,1.88,1.88,0,0,0,3.23,0,13.15,13.15,0,0,1,6.24-5.36c1.84-.81.73-3.4-1-3.49a12.2,12.2,0,0,0-8.74,2.94c-1.47,1.19.12,3.69,1.83,3.13a26.78,26.78,0,0,0,7.82-4c1.53-1.14.69-4.31-1.45-3.43A22.8,22.8,0,0,0,86.08,110a1.9,1.9,0,0,0,1.33,3.2l2.72.23-1.32-3.2a19.91,19.91,0,0,0-5.54,12.65H87a31.28,31.28,0,0,1,1.53-13.47c.77-2.29-2.85-3.27-3.62-1Z"/><path class="cls-3" d="M76.15,145.54l7.49,19c.58,1.48,3,.83,2.41-.67l-7.49-19c-.58-1.48-3-.84-2.41.66Z"/><path class="cls-3" d="M83.54,146.63A37.87,37.87,0,0,0,81.36,155a1.31,1.31,0,0,0,.88,1.54l7.22,2.9c1.5.6,2.14-1.82.67-2.41l-7.23-2.9.88,1.54A37.39,37.39,0,0,1,86,147.29c.57-1.5-1.84-2.15-2.41-.66Z"/><path class="cls-3" d="M93.38,151.87a10.07,10.07,0,0,0,2.8,7.54c1.11,1.17,2.88-.6,1.77-1.77a7.54,7.54,0,0,1-2.07-5.77c.09-1.6-2.41-1.6-2.5,0Z"/><path class="cls-3" d="M93.79,143.19a1.25,1.25,0,0,0,0-2.5,1.25,1.25,0,0,0,0,2.5Z"/><path class="cls-3" d="M110,150.21c-.27-3.62-5.23-4.59-7-1.47-2.29,4,1.84,7.56,5.52,8.12l-.55-2.09a2.18,2.18,0,0,1-2.71.78c-1.44-.68-2.72,1.48-1.26,2.16a4.65,4.65,0,0,0,5.73-1.17c.52-.64.48-1.93-.55-2.09-1.77-.27-4-1-4.25-3.14a1.86,1.86,0,0,1,.88-1.93c.6-.24,1.64.1,1.69.83.12,1.6,2.62,1.61,2.5,0Z"/><path class="cls-3" d="M109.08,132.72l9.67,22.82c.59,1.4,2.49.31,2.28-1-.93-5.67-1.82-12.44,3.63-16.21L122.83,137c-1.59,4.45-7.21,5.77-4.81,11.41,1.91,4.5,7,5.37,11.33,5.93,1.59.2,1.57-2.3,0-2.5-4.83-.63-12.92-3.69-7.23-9.79a11.79,11.79,0,0,0,3.12-4.39,1.26,1.26,0,0,0-1.84-1.41c-6.48,4.49-5.93,12.07-4.78,19l2.29-1-9.67-22.81c-.62-1.48-2.78-.21-2.16,1.26Z"/><path class="cls-3" d="M144.73,139.81c-5.67-4.5-14.58,1.41-10.36,8.22a5.86,5.86,0,0,0,7.9,2.28,6.37,6.37,0,0,0,2.52-8.38c-.64-1.2-2.2-.49-2.33.63a13.07,13.07,0,0,0,3,9.86c1,1.25,2.77-.52,1.77-1.77a10.62,10.62,0,0,1-2.25-8.09l-2.33.63c2.16,4.09-4.14,7.56-6.37,3.11-2.11-4.2,3.43-7.32,6.7-4.72,1.25,1,3-.77,1.77-1.77Z"/><path class="cls-4" d="M275.43,225.66c-19.79-12.13-37.84-31.84-37.18-55,.4-14,8-27.43,19.12-36S282.91,122.3,296.93,123a50.75,50.75,0,0,1,17.44,3.68c15.13,6.42,25.19,22.51,25.84,38.93s-7.49,32.62-20.1,43.16-29.27,15.67-45.7,15.67a27.59,27.59,0,0,0-1.49,12.41,14.31,14.31,0,0,1,8.7-.61L275,224.73"/><path class="cls-2" d="M277.36,237.13c2.81,4.44,5.44,10,1.43,14.65-1.32,1.53-3.26,2.9-4.05,4.82-1,2.55.17,4.09,2.11,5.63,8.54,6.78-2.19,12.72-4.56,19.27-1.43,4,.46,6.42,2.28,9.81,2.12,3.94-.36,6-1.05,9.84a8.57,8.57,0,0,0,.7,4.68c2.43,6.16,7.43,10.67,1.29,16.85-3.23,3.25-7.6,5.51-9,10.19a7,7,0,0,0-.16,4.28c.77,2.32,4.62,3.89,4.79,6.16.06.8,1.31.81,1.25,0-.12-1.58-.61-2.12-1.77-3.21-1.9-1.81-3.34-3.89-2.9-6.9.3-2.14,2.35-4.1,3.86-5.52,3.29-3.1,8-5.65,8.4-10.69.3-4-2.48-7.2-4.09-10.56-2.16-4.51.39-6.08,1.23-10.1a7.08,7.08,0,0,0-.82-4.54c-1.87-4.18-4.74-6.42-2-11.55,1.36-2.51,3.55-4.45,5.07-6.86,1.71-2.72,3.15-6.59,1.26-9.59-2-3.16-6.5-2.84-3.18-8.77,1.09-2,3.22-3,4.19-5.16,2.1-4.59-.76-9.52-3.19-13.36-.43-.68-1.52-.05-1.08.63Z"/><path class="cls-3" d="M319.55,158.16c3.22,0,3.22-5,0-5s-3.22,5,0,5Z"/><path class="cls-3" d="M313.5,152.82a22.89,22.89,0,0,1,4.45,8.69,2.52,2.52,0,0,0,4.82,0,10.62,10.62,0,0,0-6.33-13c-2.34-1-4.19,2.58-2.43,4.17a19,19,0,0,1,5.72,9.21c.86,3.1,5.69,1.78,4.83-1.33a23.92,23.92,0,0,0-7-11.41l-2.44,4.18c2.63,1.08,3.66,4.3,2.84,6.84h4.82A28.76,28.76,0,0,0,317,149.29c-2.06-2.48-5.58,1.07-3.54,3.53Z"/><path class="cls-5" d="M415.74,215c-24.57-19.43-38.63-51.42-36.31-82.66.69-9.33,3-19,9.07-26.06C398.92,94.16,417,92.93,432.92,94c8.49.55,17.1,1.52,24.9,4.9,21.77,9.45,32,37.1,25.77,60s-25.77,40.49-47.83,49.23c-10.14,4-21.18,6.6-29.61,13.52a20.68,20.68,0,0,0,15.76,2.6,18.64,18.64,0,0,0-8.37-9.8"/><path class="cls-2" d="M417.56,227.18a19.2,19.2,0,0,0,5.16,11.72,57.32,57.32,0,0,0,6.2,5.87c.68.53,1.34,1.09,2,1.67l-1.41,5c-.77,1.54-2.64,3.34-3.71,4.69-2.14,2.71-6.45,6.27-5.38,10.15a8.84,8.84,0,0,0,2.49,3.44c3.24,3.41,5.23,8.59.4,11.81-3,2-7.38,1.77-7.94,6.2-.53,4.15,3.68,7.75,6.35,10.19,2.36,2.15,6,4.43,7.81,7,2.73,4-.51,4.06-1.47,7-.47,1.42,0,2.57.55,3.85,2.1,5,3.73,8.36,2.84,13.93-.12.78,1.08,1.12,1.21.33a21.67,21.67,0,0,0,.14-7c-.54-3.37-2.23-5.91-2.36-9.32-.14-3.91.1-2.28,1.47-4.57a4,4,0,0,0,.63-1.16,3.19,3.19,0,0,0-.64-2.56c-3.28-5.48-12-7.86-14.36-14.1-2.86-7.55,7.48-7.25,9.51-12.58a7.93,7.93,0,0,0-1.18-7.78c-.71-.95-1.85-1.63-2.49-2.61-2.49-3.75-1.25-5.61.82-8.26,2.42-3.09,5.32-6.09,7.43-9.4,1.65-2.57,1.61-3.78-.62-5.87-5.46-5.11-11.68-9.47-12.18-17.67,0-.8-1.29-.8-1.25,0Z"/><path class="cls-3" d="M459.12,115.74l10.48,11.57c.93,1,2.82-.37,2-1.52a40.48,40.48,0,0,0-11.5-10.39c-1-.62-2.46.66-1.71,1.71a38.15,38.15,0,0,0,10.78,10.25l1.26-2.16a26.11,26.11,0,0,1-9.87-8.09l-1.71,1.71c3.9,2.11,9.34,5.38,7.21,10.64h2.41a29.24,29.24,0,0,0-8.74-13.7c-1.2-1.05-2.91.62-1.77,1.77A35.69,35.69,0,0,1,466,130.07c.56,1.49,3,.85,2.41-.66a38.76,38.76,0,0,0-8.71-13.65l-1.77,1.77a26.76,26.76,0,0,1,8.1,12.6,1.26,1.26,0,0,0,2.41,0c2.58-6.38-3.47-10.83-8.36-13.47-1-.54-2.5.64-1.71,1.71a28.68,28.68,0,0,0,10.77,9,1.25,1.25,0,0,0,1.26-2.16,34.67,34.67,0,0,1-9.88-9.35l-1.71,1.71a37.12,37.12,0,0,1,10.6,9.49l2-1.51L460.89,114c-1.09-1.2-2.85.57-1.77,1.77Z"/><path class="cls-3" d="M469.54,126.41a9,9,0,0,0,.37,5.24,1.28,1.28,0,0,0,1.84.75,3.74,3.74,0,0,0,.6-6.25c-2.32-1.59-5.54.3-5.66,3-.08,1.61,2.42,1.6,2.5,0,0-.75,1.25-1.45,1.84-.85a1.27,1.27,0,0,1-.54,2l1.83.75a6.66,6.66,0,0,1-.37-3.92c.33-1.57-2.08-2.24-2.41-.66Z"/><path class="cls-1" d="M23.72,251.53c-1.32-3-4.11-7.17-8-5.38-3.24,1.46-2.51,5.39-1.12,7.91a29.14,29.14,0,0,0,3.93,5.12c1.3,1.44,3.17,4,5,4.68,2,.79,3.87-1.8,1.75-2.87-1.43-.73-2.69,1.43-1.26,2.16l.27.13-.62-1.08c-.09-1.31.1-1.29-1-2.3-.48-.45-.95-.92-1.41-1.4a37.38,37.38,0,0,1-3.64-4.31c-.59-.81-2.36-3.14-1.82-4.09l3-1.44,1.47,1.5a15,15,0,0,1,1.3,2.63c.64,1.47,2.79.2,2.16-1.26Z"/><path class="cls-1" d="M23.72,251.81c3.1-1.45,9.38-2.71,7.79,2.94-.82,2.93-2.72,5.35-2.31,8.54.2,1.58,2.7,1.6,2.5,0-.56-4.34,4.38-8.44,2-12.75-2.32-4.16-7.84-2.48-11.23-.89-1.46.68-.19,2.83,1.26,2.16Z"/><path class="cls-1" d="M185.58,260.52a14.64,14.64,0,0,1-2.32-2.4c.45-3.43,1.73-4.37,3.82-2.82a8.43,8.43,0,0,1,3.93,5.24,1.29,1.29,0,0,0,1.54.87c2-.35,3.35,2.2,2.58,3.69a4.07,4.07,0,0,1-1.94,1.41c-1.17.61-2.47,1-3.67,1.51a7.14,7.14,0,0,0-4.19,4c-.59,1.5,1.83,2.15,2.41.66,1.61-4.12,8.49-2.9,10.16-7.44,1.41-3.82-2.46-6.91-6-6.28l1.54.87c-1.19-4-5.63-9.25-10.4-7.78-5.48,1.69-1.87,7.82.78,10.2,1.2,1.07,3-.7,1.77-1.77Z"/><path class="cls-1" d="M181.69,261.29l4,10.44c.58,1.49,3,.84,2.41-.66l-4-10.45c-.57-1.48-3-.84-2.41.67Z"/><path class="cls-1" d="M351,267.22a90.32,90.32,0,0,1-11.14-10.55l-.55,2.09a8.17,8.17,0,0,1,7.76,1.12c.9.59,1.61,1.28,2.79,1.13s1.32-1.09,2.16-1.49c3.52-1.67,2.81,3.41,1.67,4.71a16.86,16.86,0,0,1-2.77,2.29c-1.3.93-.05,3.1,1.26,2.16,2.28-1.64,5-3.65,5.36-6.68a5.19,5.19,0,0,0-3.38-5.39,3.54,3.54,0,0,0-2.8.26c-1.33.72-1.17,1.6-2.87,1s-3-1.85-5.07-2.09a10.37,10.37,0,0,0-4.78.61,1.27,1.27,0,0,0-.55,2.09A89.7,89.7,0,0,0,349.27,269c1.24,1,3-.76,1.76-1.77Z"/><path class="cls-1" d="M501.2,202.22c-1.3-1.2-3.46-2.86-3.63-4.76-.58-6.55,4.1-2.55,5.25-1.75a7.06,7.06,0,0,0,5.61,1.54c1.22-.18,2.37-.94,3.57-1.06q3.91-.94,3.19,1.87l-2.58,1c-3.44,1.32-6.89,2.6-10.34,3.9-1.49.56-.84,3,.67,2.41l11-4.15c1.61-.61,3.76-1.17,4.16-3.11,1-4.59-5.22-4.73-7.92-4-2.45.69-3.87.8-6.12-.59a16.78,16.78,0,0,0-2.71-1.76,4.39,4.39,0,0,0-4.64.7c-4.11,3.66-.26,8.76,2.7,11.5,1.18,1.09,2.95-.67,1.77-1.77Z"/><path class="cls-1" d="M229.29,105.25l-8.42-8.35-2.4-2.39q2.61-5.24,5.32-1.56c.92.79,1.74,1.66,2.73,2.36a7.67,7.67,0,0,0,5.67,1.63c7.27-.78,3.26,7.42.11,9.93-1.26,1,.52,2.76,1.77,1.77,3.2-2.55,7.39-9.59,3.78-13.49A3.89,3.89,0,0,0,234.44,94c-3.14.1-5.27.35-7.92-1.94a24.85,24.85,0,0,0-3.24-2.74c-2.82-1.7-7.83-1.74-8.6,2.35-.48,2.5,1.66,4.21,3.22,5.78,3.19,3.21,6.41,6.37,9.62,9.55a1.25,1.25,0,0,0,1.77-1.77Z"/><path class="cls-1" d="M347.57,83.27c-1.65-2.8-4.5-6.18-5.11-9.42-.55-2.84,2.13-4.06,4.23-2.3,1.38,1.15,1.92,3.06,2.4,4.72a1.26,1.26,0,0,0,1.54.87c1.34-.46,1.37-.67,2.55.51s.81,1.67-.42,2.82-2.43,1.74-3.5,2.82A1.25,1.25,0,0,0,351,85.05c2.25-2.26,6.21-3.89,5.74-7.74-.43-3.55-4.15-3.48-6.8-2.58l1.53.87c-1.13-3.87-5-10.21-9.91-6.64-5.13,3.76,1.77,12.09,3.82,15.57a1.25,1.25,0,0,0,2.16-1.26Z"/><path class="cls-1" d="M17,71.7c-.7-2.1-1.92-4-2.61-6.09-.31-.91-.8-2.71-.24-3.64,2.82-4.59,4.84.24,5.46,1.65a1.27,1.27,0,0,0,1.71.44,22.58,22.58,0,0,1,8.53-2.2q2.73-.6,2.61,2.52c-1.07.81-2.16,1.6-3.27,2.38C25.78,69.18,22.37,71.58,19,74c-1.3.92-.05,3.09,1.26,2.16,3.82-2.71,7.65-5.41,11.46-8.14,1.85-1.32,4.46-2.89,3.85-5.54-1.39-6.07-12.32-2-15.52-.56l1.71.44c-1.43-3.25-5-6.91-8.46-3.66-4.25,4-.12,9.51,1.28,13.67.51,1.52,2.93.87,2.41-.66Z"/><path class="cls-1" d="M508,70a45.1,45.1,0,0,1-12.39-6.89c-1.11-.89-3.41-2.32-4-3.63-1.58-3.46.88-5.16,3.9-2.8a13,13,0,0,1,2.7,3.53,1.28,1.28,0,0,0,1.41.57,7.42,7.42,0,0,0,2.77-1.23c.35-.24.66-.54,1-.8,1.77-1.4,1.38-2,3.72-.4,2,1.34,2,1.39,1.43,3.44a20.47,20.47,0,0,1-.92,2.4,17.25,17.25,0,0,0-1.2,4.6c-.18,1.6,2.32,1.58,2.5,0,.47-4.16,5-10,.6-13.66-4.06-3.41-7,2.44-10.55,3.24l1.41.58c-1.75-2.84-4.14-6.33-7.94-6-2.27.2-4.53,1.84-4.62,4.24-.13,3.59,4.66,6.67,7.11,8.54a48.18,48.18,0,0,0,12.43,6.7c1.51.56,2.16-1.85.66-2.41Z"/><path class="cls-1" d="M23.18,115l-8.46,7a1.25,1.25,0,0,0,.26,2,38.44,38.44,0,0,0,13.17,4.48l-.75-1.84c-2.19,4-5.24,5.57-8.73,8-1.53,1.08-3.07,2.41-3.36,4.37-.45,3,2.1,5.91,5.13,5l-1.59-1.21c0,1.33.44,4.33,0,5.58-.86,2.54-4.85,3.53-7.1,4.36l-10.92,4c-1.5.55-.85,3,.66,2.41C7,157,13.69,155.53,18.8,152.6c3.64-2.08,2.56-6.21,2.55-9.93a1.26,1.26,0,0,0-1.58-1.2q-1.86-3.83.7-5.09c.53-.34,1.08-.66,1.64-1a25.64,25.64,0,0,0,2.56-1.68,18.68,18.68,0,0,0,4.89-6,1.25,1.25,0,0,0-.74-1.83,36.5,36.5,0,0,1-12.58-4.23l.25,2,8.46-7c1.24-1-.53-2.78-1.77-1.77Z"/><path class="cls-1" d="M512.7,251.86a54.61,54.61,0,0,0,11.84,8.44c.74.38,3.44,1.24,3.8,1.78,1.73,2.64-.18,4.71-2.1,6.06-2.49,1.75-5.44,3.28-7.74,5.29-6.6,5.76,10.31,8.22,13.07,9a1.25,1.25,0,0,0,.66-2.41l-8.62-2.46c-1.86-.53-3.89-.65-2.3-3,.54-.81,2.29-1.56,3.1-2.12,2.7-1.85,7.63-4.12,8.3-7.75.53-2.87-1.56-4-3.88-5.07a54.62,54.62,0,0,1-14.37-9.5c-1.18-1.09-3,.67-1.76,1.77Z"/><path class="cls-1" d="M33.84,322.59a92.58,92.58,0,0,1,10,3.23c1.23.47,6,1.62,6.62,2.89,1.14,2.25-1.74,3.44-3.14,4.33-3.69,2.35-7.48,5.3-6.18,10.17a1.25,1.25,0,0,0,2.41-.67c-1.84-6.88,12.58-8,10.08-14.23-.87-2.13-4.47-3-6.32-3.76a95.92,95.92,0,0,0-12.86-4.37,1.25,1.25,0,0,0-.66,2.41Z"/><path class="cls-1" d="M360.15,332.3l9.4,3c1.24.39,3.19.6,4.27,1.35q2.58.36,2.13,3.66,2.06,2.52.26,4.6c-1.63,4.11-5.23,6.43-3.37,11.27.57,1.48,3,.84,2.41-.67-2.48-6.45,8.75-11.93,4-18.48-1.15-1.59-3-2.17-4.77-2.79-4.51-1.58-9.13-2.89-13.68-4.33-1.54-.49-2.19,1.92-.66,2.41Z"/><path class="cls-1" d="M197,333c4.45.69,7,4.8,6.48,9.13-.53,4.51-4,7.77-7.66,10.05-1.37.84-.11,3,1.26,2.15,4.79-3,9.26-7.74,9-13.78a10.33,10.33,0,0,0-8.42-10c-1.58-.24-2.25,2.17-.67,2.41Z"/><path class="cls-1" d="M85.37,31.41c2.28,2.39,2.77,4.74,3.9,7.62A5,5,0,0,0,91,41.53c2.76,2.11,8.33,2.12,11.6,2.74,3.08.58,6.12,1.09,6.82,4.75.27,1.43-.24,2.84.28,4.29a4.07,4.07,0,0,0,4,3c1.61.07,1.6-2.43,0-2.5-2.82-.13-1.33-7-2.62-8.88s-3.79-2.33-5.92-2.75c-3.88-.77-10.16-.65-12.73-3.66-2.25-2.64-2.72-6.22-5.28-8.91-1.11-1.17-2.88.6-1.77,1.76Z"/><path class="cls-1" d="M235.52,30.28c0,5.78-1.19,10.13,5.74,8.79,5-1,9.94-2,14.91-3,4.4-.88,9.5-2.67,14-2.44,7.06.37,8,9.88,15.21,9.25,4.49-.39,9.28-2.67,13.57-4l14.4-4.48c1.53-.47.88-2.89-.67-2.41-7.8,2.43-15.59,4.88-23.4,7.27-2.57.79-5.19,1.31-7.76-.13-1.3-.73-2.07-2.63-3-3.75A11.12,11.12,0,0,0,274,31.75c-5.45-2.1-13.1.87-18.46,1.94l-11.18,2.23c-1.13.22-5.26,1.59-6.33.54-.59-.59,0-5.26,0-6.18a1.25,1.25,0,0,0-2.5,0Z"/><path class="cls-1" d="M394.56,29.12c3.24,4.15,7.19,12.21,12.78,13.4,5,1.07,11.73-2.65,16.36-4.21,1.51-.51.86-2.92-.67-2.41-4,1.36-9.55,4.4-13.83,4.25-5.3-.19-10-9.11-12.87-12.79-1-1.27-2.75.51-1.77,1.76Z"/><path class="cls-6" d="M32.84,131.57a46.24,46.24,0,0,0,12.66,6.48L45,136a15.69,15.69,0,0,0-5.23,10.11c-.29,3,.64,4.73-.58,7.54-1.5,3.42-3.45,2.43-6.63,3.31-6.66,1.85-9.59,9.34-6.86,15.43.65,1.47,2.81.2,2.16-1.26-2.41-5.38,1-10.75,6.45-12,2.31-.52,5-.42,7-1.94,1.74-1.35,1.95-2.92,1.71-5-.68-5.82-1-10.07,3.77-14.43a1.26,1.26,0,0,0-.55-2.09,43.77,43.77,0,0,1-12.07-6.23c-1.3-.95-2.55,1.22-1.26,2.16Z"/><path class="cls-6" d="M247.87,22.13a24.5,24.5,0,0,0,32.57-.67l-2-.25C286.27,37,305.34,37.61,320,32.4c1.51-.53.86-2.95-.66-2.41-13.63,4.85-31.38,4.73-38.7-10a1.26,1.26,0,0,0-2-.25,22,22,0,0,1-29,.67c-1.22-1.05-3,.71-1.77,1.76Z"/><path class="cls-6" d="M416.18,6.3c-1.62,3.73-4.79,12.44-1,15.84,5.36,4.81,13.65-7.07,18.34.28.86,1.35,3,.1,2.16-1.26-2.26-3.54-6.25-4.06-10.07-2.94-3,.89-7.88,4.92-9.39,0-.93-3,.93-7.86,2.13-10.63.64-1.46-1.52-2.73-2.16-1.26Z"/><path class="cls-6" d="M523.77,234.29l4.61-1.31-1.54-.88c1.35,4.44-3.47,8-3,12.43s4.63,4.79,8.1,5.74c8.55,2.34,5,9.36,4.68,15.85-.2,4,.67,7.85,4.45,9.77,1.44.72,2.7-1.44,1.27-2.16-8.67-4.38,2.86-18.47-5.34-24.27-4.22-3-12.35-.68-9.77-8.73,1.06-3.33,3.16-5.61,2-9.29a1.27,1.27,0,0,0-1.54-.87l-4.61,1.31a1.25,1.25,0,0,0,.67,2.41Z"/><path class="cls-6" d="M380.64,327.21c3.12.56,6.21,1.22,9.27,2.09,1.55.43,6.54,1.44,6.23,3.88-.08.64-1.24,1.63-1.6,2.21a16.85,16.85,0,0,0-2.35,10.24,17.76,17.76,0,0,0,11.16,15.31c1.5.58,2.15-1.83.67-2.41a15,15,0,0,1-9-10.87c-1.25-5.43.82-8.71,3.28-13.22,1.07-1.95,1-3.85-.86-5.21-4.06-2.9-11.37-3.57-16.14-4.43-1.57-.28-2.25,2.13-.66,2.41Z"/><path class="cls-6" d="M214.79,334a26.48,26.48,0,0,1,4.88.06c1.45-.52,2-.16,1.61,1.1a3,3,0,0,1-.72,2.47c-.84,2.33-2.06,4.29-2.48,6.8a9.53,9.53,0,0,0,.46,5.41c.9,2.09,5.77,5.36,4.53,7.7-.76,1.43,1.4,2.69,2.15,1.27a4.87,4.87,0,0,0-.49-5.6c-1.81-2.54-4.07-3.56-4.17-7.08-.09-3.12,1.55-5.9,2.86-8.63,3.32-6.9-3.25-5.93-8.63-6a1.25,1.25,0,0,0,0,2.5Z"/><path class="cls-6" d="M29,330.16c-2.85,2.95-7.2,6.13-9.23,9.7a4,4,0,0,0,.39,5c2.76,3.23,6.62,3.48,8.7,7.74s2.63,9.39,3.63,14c.35,1.57,2.76.91,2.42-.67-1.25-5.67-1.83-12.92-5.73-17.57-1.62-1.92-4.73-2.5-6.14-4.28-2.86-3.63,5.6-9.92,7.73-12.12,1.11-1.16-.65-2.93-1.77-1.77Z"/><path class="cls-4" d="M4.84,313.06c7.93-.75,9,7.65,3.61,11.38-1.69,1.18-3.21,2-3.64,4.19-.78,3.95,3,7.19,5.86,9.22,1.31.94,2.56-1.23,1.26-2.16-3.57-2.57-6.31-5-2.21-9.09,1.07-1.08,2.29-1.39,3.26-2.71a8.7,8.7,0,0,0,1.69-5.51c-.24-5.15-5-8.28-9.83-7.82-1.59.15-1.6,2.65,0,2.5Z"/><path class="cls-4" d="M31.4,140.75c-3.33,3.2-4.2,6.63-4.23,11.1,0,3.33-.51,4.4-3.74,5.21a22.06,22.06,0,0,0-6,2.46A23.82,23.82,0,0,0,5.85,180.6c.05,1.61,2.55,1.61,2.5,0a21.25,21.25,0,0,1,16.41-21.26c2.08-.49,4.7-.7,5.49-3.1.37-1.16-.17-2.22-.34-3.33-.63-4.11.21-7.46,3.26-10.39,1.16-1.12-.61-2.89-1.77-1.77Z"/><path class="cls-4" d="M197,29.43c7.76-7.27,21.39-16.13,20.57-28.23-.11-1.59-2.61-1.61-2.5,0,.74,11-12.69,19.77-19.84,26.46-1.17,1.1.6,2.87,1.77,1.77Z"/><path class="cls-4" d="M434.76,10.49a102.7,102.7,0,0,0,18.52,7.86A94.55,94.55,0,0,0,463.77,21c1.37.26,4.1.28,5.34.87,3.77,1.77,2,3.2,1.14,5.71a11.78,11.78,0,0,0,10.32,15.62c1.6.12,1.6-2.38,0-2.5-7.67-.55-9.41-7.88-7.29-13.91,1-2.81,1.38-5.57-1.81-6.95-2.05-.9-4.84-.83-7-1.25-3-.56-5.88-1.25-8.77-2.09A99.76,99.76,0,0,1,436,8.33c-1.41-.77-2.68,1.39-1.26,2.16Z"/><path class="cls-4" d="M345.73,338.3l-2.63,2.51a1.26,1.26,0,0,0,.25,2,21,21,0,0,1,8.3,24.94c-.56,1.51,1.86,2.17,2.41.66a23.51,23.51,0,0,0-9.45-27.76l.26,2,2.62-2.52c1.17-1.11-.6-2.88-1.76-1.76Z"/><path class="cls-4" d="M491.66,264.05a27.25,27.25,0,0,0,5.9,29.22c1.12,1.15,2.89-.61,1.76-1.77a24.85,24.85,0,0,1-5.25-26.78c.59-1.5-1.83-2.15-2.41-.67Z"/><path class="cls-4" d="M61.63,23l.72,12.78c.12,2.17-.36,5.92,1,7.89,1.1,1.6,3,1.54,4.75,1.74A17.87,17.87,0,0,1,78.9,50.25a18.4,18.4,0,0,1,5,9.62c.34,1.47.56,3,2.09,3.65,2.55,1.15,6.35-1.64,8.37-2.42,4.63-1.79,9.86-2.83,13.86.93,1.17,1.1,2.94-.67,1.77-1.77-4.12-3.87-9.47-3.88-14.62-2.2-1.24.41-2.41,1-3.63,1.46a6.66,6.66,0,0,1-5.25.75l-.18-1.06c-.64-1.08-.7-3-1.22-4.27a19.18,19.18,0,0,0-2-3.6,20.09,20.09,0,0,0-12-8c-1.24-.27-2.86-.06-4-.48-2.55-.93-2.14-4.58-2.28-7L64.13,23c-.09-1.6-2.59-1.61-2.5,0Z"/><path class="cls-3" d="M252.5,163l7.81,22.2,2.28-1a14.64,14.64,0,0,1,1.23-14.6c.91-1.37-1.21-2.5-2.16-1.26-2.42,3.16-4.63,7.21-1.68,10.82,3.16,3.87,8.51,3.08,12.8,2.2,1.57-.32.91-2.73-.66-2.41-2.59.53-6.29,1.48-8.74-.18-4.46-3-1.56-6.56.44-9.17l-2.16-1.26a17.13,17.13,0,0,0-1.23,17.12c.6,1.27,2.76.37,2.29-1l-7.81-22.2c-.53-1.5-2.95-.86-2.41.67Z"/><path class="cls-3" d="M279.88,168.43a30.36,30.36,0,0,0,.33,11.36c.35,1.57,2.76.91,2.41-.66a27.13,27.13,0,0,1-.33-10c.25-1.57-2.16-2.25-2.41-.66Z"/><path class="cls-3" d="M275.88,161.46a1.25,1.25,0,0,0,0-2.5,1.25,1.25,0,0,0,0,2.5Z"/><path class="cls-3" d="M292.92,170.23c-2.63-.23-3.18,2.87-2.44,4.81.53,1.37,1.74,2.1,2.67,3.16,2.13,2.39-1.31,2.41-2.91,2s-2.24,2-.67,2.41c2.39.57,6.12.69,6.77-2.39a4.15,4.15,0,0,0-1.24-3.62c-.58-.67-1.4-1.19-1.94-1.89-.21-.27-1-2.07-.24-2,1.61.14,1.6-2.36,0-2.5Z"/><path class="cls-3" d="M302.29,165.94l2.49,14.4c.22,1.27,2.08,1.1,2.41,0a18,18,0,0,1,8.71-10.82,1.26,1.26,0,0,0-.63-2.33c-4.88.22-10.71,4.38-9.12,9.93,1.25,4.32,6.94,6.45,10.37,3.4,1.2-1.08-.57-2.84-1.77-1.77-2.33,2.07-6.18-.37-6.33-3.19-.19-3.55,3.8-5.73,6.85-5.87l-.63-2.33a20.57,20.57,0,0,0-9.86,12.31h2.41l-2.49-14.39c-.27-1.58-2.68-.91-2.41.66Z"/><path class="cls-3" d="M331.1,174c-2.37-6.93-12.33-6.64-13.77.75a1.27,1.27,0,0,0,.87,1.54,14.77,14.77,0,0,0,8.63-1l-1.83-.74,2.23,7.45c.46,1.54,2.88.89,2.41-.66l-2.23-7.46a1.27,1.27,0,0,0-1.84-.74,11.83,11.83,0,0,1-6.7.77l.87,1.53c.94-4.77,7.3-5.57,8.95-.75.52,1.52,2.93.87,2.41-.66Z"/><path class="cls-3" d="M389.59,138.63a64.13,64.13,0,0,1,12.69,27.88l2.29-1a18.54,18.54,0,0,1,3.94-20.38l-2-1.52c-2.84,4.61-6.37,10.8-3.14,16.13,2.17,3.58,6.2,5.25,10,3.3,1.43-.74.16-2.9-1.27-2.16-1.6.82-4.45.06-5.65-1.22a7.07,7.07,0,0,1-1.58-6.35c.51-3.1,2.19-5.8,3.82-8.43a1.26,1.26,0,0,0-2-1.52,21.13,21.13,0,0,0-4.34,23.41c.58,1.38,2.53.34,2.28-1a66.71,66.71,0,0,0-13.33-29c-1-1.26-2.76.52-1.77,1.77Z"/><path class="cls-3" d="M422.68,151a12,12,0,0,0-2.31,8.14c.13,1.59,2.63,1.61,2.5,0a9.9,9.9,0,0,1,2-6.88c1-1.3-1.22-2.54-2.16-1.26Z"/><path class="cls-3" d="M417.34,139a1.25,1.25,0,0,0,0-2.5,1.25,1.25,0,0,0,0,2.5Z"/><path class="cls-3" d="M435.14,150.5c-1.92-1.31-4.15.56-3.8,2.7.22,1.36,1.27,2.36,2.15,3.35q2.14,2.4,4.31,4.78l.25-2a16,16,0,0,1-11.79,2.75c-1.57-.25-2.25,2.16-.66,2.41a18.59,18.59,0,0,0,13.71-3,1.28,1.28,0,0,0,.26-2l-3.08-3.41c-.41-.46-.83-.91-1.23-1.37a9.4,9.4,0,0,1-1-1.13,1.05,1.05,0,0,1-.42-1c1.33.91,2.58-1.25,1.26-2.16Z"/><path class="cls-3" d="M448.18,141.65A169.58,169.58,0,0,1,447,160.76c-.16,1.39,2.16,1.7,2.46.33a31.34,31.34,0,0,1,8.59-15.86,1.25,1.25,0,0,0-1.51-2c-3.31,1.81-6.81,3.45-10,5.5-1.61,1-3.29,2.52-2.91,4.64.31,1.71,1.81,2.48,3.25,3.16a51.21,51.21,0,0,0,11.95,3.55c1.57.31,2.24-2.1.66-2.41-2.52-.49-12.67-2.14-12.68-5,0-2.09,3.27-3.1,5-4.06l5.95-3.26-1.51-2a33.75,33.75,0,0,0-9.24,17l2.45.34a169.58,169.58,0,0,0,1.17-19.11,1.25,1.25,0,0,0-2.5,0Z"/><path class="cls-3" d="M471,151.37c.63-5.9-8.92-6.85-9.05-.51-.15,6.85,8.63,6.56,10.81,1.13l-2.29.3,6.18,10.48a1.25,1.25,0,0,0,2.16-1.26L472.62,151a1.26,1.26,0,0,0-2.28.3c-1,2.49-5.15,3.66-5.83.26a2,2,0,1,1,4-.22c-.17,1.6,2.33,1.58,2.5,0Z"/></g></g></svg>