<svg xmlns="http://www.w3.org/2000/svg" viewBox="0 0 256.47 607.04"><defs><style>.cls-1{fill:#414042;}.cls-2{fill:#8a80bd;}.cls-3{fill:#fff;}</style></defs><title>Asset 1</title><g id="Layer_2" data-name="Layer 2"><g id="Layer_1-2" data-name="Layer 1"><path class="cls-1" d="M128.37,279.85a153.77,153.77,0,0,1-1.62,79.47c-3.77,13-9.58,24.93-16,36.78-5.68,10.4-11.62,21.29-13.06,33.23a35.5,35.5,0,0,0,8.93,28.3c6.87,7.74,16.13,12.9,24.47,18.84,9.7,6.92,17.39,15.49,21.56,26.8a67.12,67.12,0,0,1,3,33.89C151,565.08,130.21,587,107.53,602.29c-2.66,1.79-.16,6.12,2.52,4.32,20.14-13.54,38.15-31.49,46.75-54.61,7.59-20.4,6.37-45.15-6.17-63.38-6.23-9.05-15.07-15.16-24-21.24-9.56-6.47-20-13.61-23.24-25.37-3.88-14,3.52-28.32,10-40.33,6.06-11.27,12.06-22.37,16.17-34.53a158.87,158.87,0,0,0,3.66-88.63c-.76-3.13-5.59-1.8-4.82,1.33Z"/><circle class="cls-2" cx="128.23" cy="128.23" r="128.23"/><path class="cls-3" d="M168.91,42.85A43.72,43.72,0,0,1,201.3,72.17L205,69.35q-8.28-6.07-16.85-11.75-4.68-3.09-9.45-6c-2.61-1.62-5.52-4-8.33-5.19-1.59-.66-.15.33.5,1a13.42,13.42,0,0,0,2.59,2c2.22,1.32,4.81,2,7.14,3.11a40.4,40.4,0,0,1,14.73,12l2.44-4.17c-5.21-1.71-9.56-6.83-14-10-2.31-1.62-4.69-3.15-7.12-4.58-1.44-.84-8.52-3.77-8.66-5.37l-1.83,2.41a4.53,4.53,0,0,1,4.5,1.43l1.76-4.26-8.1.37A2.52,2.52,0,0,0,163,45a20,20,0,0,1,5.85,5.42l2.83-3.67A7.45,7.45,0,0,1,165,40.87L162,44A113.66,113.66,0,0,1,203.4,72.17c2.2,2.35,5.73-1.19,3.53-3.54a119.31,119.31,0,0,0-43.64-29.5c-1.85-.73-3.51,1.39-3.07,3.07a12.18,12.18,0,0,0,10.13,9.32c1.88.28,4.25-1.7,2.82-3.67a26.59,26.59,0,0,0-7.65-7.22l-1.26,4.66,8.1-.37c2.07-.1,3.43-2.73,1.77-4.27a10.24,10.24,0,0,0-9.36-2.72,2.49,2.49,0,0,0-1.84,2.41c.56,6.37,10.07,8.9,14.74,11.91,6.18,4,11.71,10.51,18.74,12.82,2.63.86,3.81-2.41,2.43-4.18a45.61,45.61,0,0,0-19.15-14.24c-2.36-1-4.15-1.76-5.89-3.65-.87-1-1.43-2.13-2.68-2.69a4.68,4.68,0,0,0-5.81,2.12c-3.93,6.59,6.84,11,10.84,13.45,9,5.57,17.76,11.53,26.3,17.78,1.78,1.3,4.3-.85,3.67-2.82A48.79,48.79,0,0,0,170.24,38c-3.13-.69-4.47,4.13-1.33,4.82Z"/><path class="cls-3" d="M163.52,42.07c3.22,0,3.23-5,0-5s-3.22,5,0,5Z"/><path class="cls-3" d="M222.78,99.45a16.75,16.75,0,0,0-9.26-15c-2.39-1.18-5.29,1.93-3,3.92a21,21,0,0,1,6.78,11.47l4.57-1.93a74.64,74.64,0,0,0-9.14-12l-3,3.93a22.15,22.15,0,0,1,7.2,8.32c1.46,2.87,5.78.34,4.31-2.52a27.34,27.34,0,0,0-9-10.12c-2.42-1.66-4.91,1.92-3,3.93a68.18,68.18,0,0,1,8.35,11,2.51,2.51,0,0,0,4.57-1.92A25.47,25.47,0,0,0,214,84.82l-3,3.92a11.82,11.82,0,0,1,6.78,10.71c0,3.21,5,3.22,5,0Z"/><path class="cls-2" d="M122,244l-14.37,24.89a7.18,7.18,0,0,0,6.22,10.78H142.6a7.19,7.19,0,0,0,6.23-10.78L134.46,244A7.19,7.19,0,0,0,122,244Z"/></g></g></svg>