<svg xmlns="http://www.w3.org/2000/svg" viewBox="0 0 73.79 83.03"><defs><style>.cls-1{fill:#da1c5c;}.cls-2{fill:#3c2415;}.cls-3{fill:#603913;}.cls-4{fill:#39b54a;}.cls-5{opacity:0.65;}.cls-6{fill:#e6e7e8;}</style></defs><title>Asset 9</title><g id="Layer_2" data-name="Layer 2"><g id="Layer_1-2" data-name="Layer 1"><path class="cls-1" d="M.37,63.27a12.09,12.09,0,0,1,5.78-8.54A19.82,19.82,0,0,1,16.33,52a13.27,13.27,0,0,1,6.42,1.19,12.07,12.07,0,0,1,3.13,2.47c5.14,5.46,9.28,18,2.19,23.52A17.89,17.89,0,0,1,21.4,82c-6.52,1.7-13.53,1.77-18.07-4C-.3,73.43-.63,67,.76,61.46"/><path class="cls-1" d="M42.31,54.13a12.11,12.11,0,0,1,5.78-8.54,19.82,19.82,0,0,1,10.18-2.71,13.38,13.38,0,0,1,6.42,1.19,11.9,11.9,0,0,1,3.13,2.48C73,52,77.1,64.52,70,70.06a18.07,18.07,0,0,1-6.67,2.83c-6.52,1.7-13.53,1.76-18.07-4-3.63-4.6-4-11.08-2.57-16.58"/><path class="cls-2" d="M11.19,60.48a6.77,6.77,0,0,1,6.68-1c.75.29,1.08-.92.33-1.2a7.89,7.89,0,0,0-7.64,1.09c-.64.48,0,1.56.63,1.08Z"/><path class="cls-2" d="M50.09,52.18a3,3,0,0,1,3.35-2c.74.11,1.43.46,2.19.54a2.73,2.73,0,0,0,2.77-1.23c.44-.68-.64-1.3-1.08-.63-.83,1.31-2.72.24-3.8.08a4.12,4.12,0,0,0-2,.16,4.33,4.33,0,0,0-2.63,2.78c-.27.76.94,1.09,1.2.34Z"/><path class="cls-3" d="M14.55,58.22c-.6-4-1-7.88,1.13-11.56,1.49-2.6,3.53-4.88,5.1-7.43,2.46-4,4.3-8.45,7.9-11.64,4.19-3.71,9.57-4.45,15-4.46,4.09,0,1.52,1.52,1.15,4.62-.39,3.4.79,6.66,2,9.76,1.65,4.13,3.49,8.19,5.24,12.28.31.74,1.39.1,1.08-.63-3.28-7.67-10.68-18.78-5-26.25.3-.4-.12-.92-.54-.94-5.27-.17-11-.37-15.85,2S24,31.06,21.34,35.73c-2.25,4-5.71,7.62-7.53,11.82-1.52,3.5-1,7.34-.46,11,.12.79,1.32.46,1.2-.33Z"/><path class="cls-2" d="M45,22.35c1.54.55,3-1,4-2.24A37.2,37.2,0,0,1,52.84,16a2.06,2.06,0,0,1,1-.59,2.12,2.12,0,0,1,1.08.17,32.76,32.76,0,0,1,5.33,2.5,58.25,58.25,0,0,0-13.57,5.46"/><path class="cls-3" d="M44.82,23c2.32.35,3.55-1.16,5-2.83,1.07-1.27,2.54-3.49,4.2-3.8s4.33,1.43,5.89,2.31L60,17.49A62.65,62.65,0,0,0,46.33,23c-.71.39-.08,1.47.63,1.08a61.61,61.61,0,0,1,13.41-5.4.63.63,0,0,0,.15-1.14c-1.63-.92-5.06-3.24-7-2.67-3.07.87-4.81,7.39-8.34,6.86-.78-.11-1.12,1.09-.33,1.21Z"/><path class="cls-4" d="M48.05,20.94C46.14,1,23.92-4.21,8.14,3.25a1.26,1.26,0,0,0,0,2.16,30.54,30.54,0,0,0,.7,3.74,7.5,7.5,0,0,0,2.28,2.41,59.36,59.36,0,0,0,10.44,5.7,41.52,41.52,0,0,0,10.1,3.37c4.23.75,11.48-1.23,14.25,2.53,1,1.28,3.12,0,2.16-1.26a7.87,7.87,0,0,0-5.53-3.37c-4.87-.76-9.48.18-14.37-1.34A46.66,46.66,0,0,1,15.07,11a6.57,6.57,0,0,1-4-5.5,2.67,2.67,0,0,0-.36-1.16c-.31-.14-.87-.89-1.31-1.1V5.41c14-6.59,34.43-2.5,36.15,15.53.15,1.59,2.66,1.6,2.5,0Z"/><g class="cls-5"><path class="cls-6" d="M3.7,65.75,4,67.47l1-.61a1.41,1.41,0,0,1-.26-1.46l-1.21-.33a3.68,3.68,0,0,0,.58,3.33c.33.43,1.22.38,1.16-.32a31.42,31.42,0,0,1-.1-3.36A.63.63,0,0,0,4,64.55,3.55,3.55,0,0,0,4.61,68c.44.55,1.42-.19,1-.76a1.9,1.9,0,0,1-.36-1.72A.62.62,0,0,0,4,65.18a3,3,0,0,0,.49,2.68l1-.76a2.21,2.21,0,0,1-.31-2.21L4,64.72a31.42,31.42,0,0,0,.1,3.36l1.17-.31a2.48,2.48,0,0,1-.45-2.37c.23-.77-1-1.09-1.21-.33a2.65,2.65,0,0,0,.59,2.67c.45.51,1.14,0,1-.61l-.29-1.71c-.14-.79-1.34-.46-1.21.33Z"/></g><g class="cls-5"><path class="cls-6" d="M44.13,55.71c-.19,2.47.14,5.2,2.54,6.5a1.88,1.88,0,0,0,2.27-2.94,7.51,7.51,0,0,1-1.57-3.06c-.62-2.33-4.23-1.34-3.62,1a11.69,11.69,0,0,0,2.54,4.71l2.27-3c-1.08-.58-.76-2.26-.68-3.26a1.88,1.88,0,0,0-3.75,0Z"/></g></g></g></svg>